<?xml version="1.0" standalone="no"?> <!DOCTYPE svg PUBLIC "-//W3C//DTD SVG 1.0//EN" "http://www.w3.org/TR/2001/REC-SVG-20010904/DTD/svg10.dtd" > <svg xmlns="http://www.w3.org/2000/svg" width="100%" height="100%">
<defs >
<font horiz-adv-x="1055" ><font-face
    font-family="Dolce Vita Heavy"
    units-per-em="2048"
    panose-1="2 0 8 0 0 0 0 0 0 0"
    ascent="1722"
    descent="-427"
    alphabetic="0" />
<missing-glyph horiz-adv-x="2348" d="M831 1393Q932 1429 1038 1434H1152V737H980V1253Q902 1240 831 1204V737H659V1066Q543 922 543 737H369Q369 880 424 1009Q478 1135 575 1232Q419 1178 321 1044Q222 907 222 737H48Q48 875 100 1002Q151 1125 243 1220Q335
1316 456 1371Q580 1428 717 1434H831V1393ZM1371 737H1199V1434H1313Q1419 1429 1520 1393V1434H1633Q1770 1428 1895 1371Q2015 1316 2107 1220Q2199 1125 2250 1002Q2302 875 2302 737H2128Q2128 907 2029 1044Q1932 1178 1776 1232Q1873 1135 1926 1009Q1982
880 1982 737H1808Q1808 923 1691 1066V737H1520V1204Q1449 1240 1371 1253V737ZM1776 202Q1932 256 2029 390Q2128 527 2128 697H2302Q2302 559 2250 432Q2199 309 2107 214Q2015 118 1895 63Q1770 6 1633 0H1520V41Q1419 5 1313 0H1199V697H1371V181Q1449 194
1520 230V697H1691V368Q1808 511 1808 697H1982Q1982 554 1926 425Q1873 299 1776 202ZM980 697H1152V0H1038Q931 5 831 41V0H717Q580 6 456 63Q335 118 243 214Q151 309 100 432Q48 559 48 697H222Q222 527 321 390Q419 256 575 202Q477 299 424 425Q369 554 369
697H543Q543 512 659 368V697H831V230Q902 194 980 181V697Z" />
<glyph unicode=" " glyph-name="space" horiz-adv-x="508" />
<glyph unicode="!" glyph-name="exclam" horiz-adv-x="392" d="M338 194T296 236Q254 278 194 278Q134 278 91 236Q49 194 49 134Q49 74 91 31Q134 -11 194 -11Q254 -11 296 31Q338 74 338 134Q338 194 296 236ZM303 394H85V1434H303V394Z" />
<glyph unicode="&quot;" glyph-name="quotedbl" horiz-adv-x="719" d="M333 1332T331 1340Q331 1337 330 1341Q330 1342 330 1342Q330 1343 330 1343Q330 1343 330 1344V1344Q316 1388 278 1416Q240 1444 193 1444Q133 1444 91 1402Q49 1360 49 1300Q49 1241 91
1199Q133 1157 193 1157Q202 1157 213 1158Q196 1099 138 1065L179 1010Q297 1061 329 1174Q349 1244 334 1324Q333 1332 331 1340ZM647 1332T645 1340Q645 1337 644 1341Q644 1342 644 1342Q644 1343 644 1343Q644 1343 644 1344V1344Q630 1388 592 1416Q554 1444
507 1444Q447 1444 405 1402Q363 1360 363 1300Q363 1241 405 1199Q447 1157 507 1157Q516 1157 527 1158Q510 1099 452 1065L493 1010Q611 1061 643 1174Q663 1244 648 1324Q647 1332 645 1340Z" />
<glyph unicode="#" glyph-name="numbersign" horiz-adv-x="1090" d="M660 1431L621 1001H520L560 1431H342L302 1001H54V783H282L275 713H54V495H255L209 0H428L473 495H574L528 0H746L792 495H1023V713H812L819 783H1023V1001H839L879 1431H660ZM500 783H600L594
713H494L500 783Z" />
<glyph unicode="$" glyph-name="dollar" horiz-adv-x="840" d="M523 557Q575 523 574 486Q572 443 523 409V557ZM265 1005T305 1031V885Q261 917 263 950Q265 1005 305 1031ZM523 1034Q551 1021 569 1002L728 1150Q650 1235 523 1263V1515H305V1262Q243 1247 194
1217Q53 1132 45 959Q36 747 305 642V405Q261 429 248 465L44 389Q105 225 305 174V-79H523V174Q641 205 716 293Q787 377 791 476Q801 693 523 799V1034Z" />
<glyph unicode="%" glyph-name="percent" horiz-adv-x="1446" d="M939 1431L253 0H494L1180 1431H939ZM307 1102T287 1082Q267 1063 267 1035Q267 1007 287 987Q307 968 335 968Q362 968 382 987Q402 1007 402 1035Q402 1063 382 1082Q362 1102 335 1102Q307 1102
287 1082ZM217 750T133 834Q50 917 50 1035Q50 1153 133 1236Q217 1319 335 1319Q452 1319 536 1236Q619 1153 619 1035Q619 917 536 834Q452 750 335 750Q217 750 133 834ZM1076 411T1056 391Q1036 372 1036 344Q1036 316 1056 296Q1076 277 1104 277Q1131 277
1151 296Q1171 316 1171 344Q1171 372 1151 391Q1131 411 1104 411Q1076 411 1056 391ZM986 59T902 143Q819 226 819 344Q819 462 902 545Q986 628 1104 628Q1221 628 1305 545Q1388 462 1388 344Q1388 226 1305 143Q1221 59 1104 59Q986 59 902 143Z" />
<glyph unicode="&amp;" glyph-name="ampersand" horiz-adv-x="904" d="M593 217H464Q383 217 326 275Q268 333 268 415Q268 496 326 553Q383 611 464 611H593V217ZM810 828V934H593V828H544Q464 828 407 885Q351 941 351 1021Q351 1101 407 1157Q464 1214 544
1214H701V1431H544Q374 1431 254 1311Q133 1190 133 1021Q133 870 231 756Q148 699 100 610Q51 519 51 415Q51 243 172 122Q293 0 464 0H810V611H846V828H810Z" />
<glyph unicode="&apos;" glyph-name="quotesingle" horiz-adv-x="392" d="M333 1332T331 1340Q331 1337 330 1341Q330 1342 330 1342Q330 1343 330 1343Q330 1343 330 1344V1344Q316 1388 278 1416Q240 1444 193 1444Q133 1444 91 1402Q49 1360 49 1300Q49 1241
91 1199Q133 1157 193 1157Q202 1157 213 1158Q196 1099 138 1065L179 1010Q297 1061 329 1174Q349 1244 334 1324Q333 1332 331 1340Z" />
<glyph unicode="(" glyph-name="parenleft" horiz-adv-x="434" d="M277 1159T437 1282V1525Q263 1464 169 1294Q59 1093 59 716Q59 43 437 -92V154Q277 287 277 716Q277 1159 437 1282Z" />
<glyph unicode=")" glyph-name="parenright" horiz-adv-x="434" d="M159 716Q159 287 -1 154V-92Q377 43 377 716Q377 1093 266 1294Q173 1464 -1 1525V1282Q159 1159 159 716Z" />
<glyph unicode="*" glyph-name="asterisk" horiz-adv-x="612" d="M553 1170L486 1376L411 1352V1431H194V1352L119 1376L52 1170L127 1145L81 1082L256 954L303 1018L349 954L524 1082L478 1145L553 1170Z" />
<glyph unicode="+" glyph-name="plus" horiz-adv-x="783" d="M282 1075V852H60V635H282V413H499V635H722V852H499V1075H282Z" />
<glyph unicode="," glyph-name="comma" horiz-adv-x="392" d="M333 166T331 174Q331 171 330 175Q330 176 330 176Q330 177 330 177Q330 177 330 178V178Q316 222 278 250Q240 278 193 278Q133 278 91 236Q49 194 49 134Q49 75 91 33Q133 -9 193 -9Q202 -9 213
-8Q196 -67 138 -101L179 -156Q297 -105 329 8Q349 78 334 158Q333 166 331 174Z" />
<glyph unicode="-" glyph-name="hyphen" horiz-adv-x="774" d="M60 641H721V858H60V641Z" />
<glyph unicode="." glyph-name="period" horiz-adv-x="392" d="M338 194T296 236Q254 278 194 278Q134 278 91 236Q49 194 49 134Q49 74 91 31Q134 -11 194 -11Q254 -11 296 31Q338 74 338 134Q338 194 296 236Z" />
<glyph unicode="/" glyph-name="slash" horiz-adv-x="434" d="M437 1431L-249 0H-8L678 1431H437Z" />
<glyph unicode="0" glyph-name="zero" horiz-adv-x="1062" d="M431 1228T358 1124Q262 987 262 717Q262 532 305 404Q371 206 527 206Q684 206 750 404Q793 532 793 717Q793 987 697 1124Q624 1228 527 1228Q431 1228 358 1124ZM303 -11T173 180Q45 369 45 717Q45
1072 195 1268Q330 1445 527 1445Q725 1445 860 1268Q1010 1072 1010 717Q1010 369 882 180Q752 -11 527 -11Q303 -11 173 180Z" />
<glyph unicode="1" glyph-name="one" horiz-adv-x="406" d="M57 1431V1214H123V0H341V1431H57Z" />
<glyph unicode="2" glyph-name="two" horiz-adv-x="860" d="M769 0H46L141 163Q590 936 590 1052Q590 1128 548 1175Q506 1222 438 1222Q393 1222 355 1193Q316 1164 295 1115L95 1199Q141 1308 234 1374Q327 1439 438 1439Q596 1439 702 1328Q807 1217 807 1052Q807
945 715 750Q639 590 423 217H769V0Z" />
<glyph unicode="3" glyph-name="three" horiz-adv-x="877" d="M781 889T781 1047Q781 1209 666 1324Q551 1439 389 1439Q287 1439 198 1390Q110 1340 56 1253L241 1138Q292 1221 389 1221Q461 1221 512 1170Q564 1119 564 1047Q564 975 512 925Q461 874 389 874V656Q484
656 552 589Q619 522 619 428Q619 332 552 264Q484 197 389 197Q282 197 213 280L45 142Q179 -21 389 -21Q574 -21 705 111Q837 242 837 428Q837 640 670 775Q781 889 781 1047Z" />
<glyph unicode="4" glyph-name="four" horiz-adv-x="944" d="M623 1431V764H287L371 1431H152L41 546H623V0H840V1431H623Z" />
<glyph unicode="5" glyph-name="five" horiz-adv-x="890" d="M183 -15T49 140L214 283Q283 203 388 203Q483 203 551 271Q618 339 618 435Q618 529 550 596Q483 663 387 663H99L174 1438H727V1219H372L339 881H387Q573 881 705 750Q836 619 836 435Q836 249 705
117Q573 -15 388 -15Q183 -15 49 140Z" />
<glyph unicode="6" glyph-name="six" horiz-adv-x="1006" d="M411 220T344 288Q276 356 276 451Q276 546 344 614Q411 681 506 681Q601 681 669 614Q736 546 736 451Q736 356 669 288Q601 220 506 220Q411 220 344 288ZM417 894T335 861Q441 1143 709 1236L637
1442Q228 1299 102 847Q43 637 58 440Q61 256 192 127Q323 -3 506 -3Q691 -3 823 129Q954 261 954 446Q954 632 823 763Q691 894 506 894Q417 894 335 861Z" />
<glyph unicode="7" glyph-name="seven" horiz-adv-x="883" d="M50 1431V1214H535L156 0H384L831 1431H50Z" />
<glyph unicode="8" glyph-name="eight" horiz-adv-x="976" d="M392 205T325 272Q257 340 257 435Q257 529 325 596Q392 663 487 663Q581 663 648 596Q716 529 716 435Q716 340 648 272Q581 205 487 205Q392 205 325 272ZM313 1126T364 1177Q415 1228 487 1228Q558
1228 609 1177Q660 1126 660 1054Q660 982 609 931Q558 881 487 881Q415 881 364 931Q313 982 313 1054Q313 1126 364 1177ZM878 894T878 1053Q878 1214 763 1329Q648 1444 487 1444Q325 1444 210 1329Q95 1214 95 1053Q95 894 206 781Q40 646 40 434Q40 249 171
117Q302 -14 487 -14Q671 -14 802 117Q933 249 933 434Q933 646 767 781Q878 894 878 1053Z" />
<glyph unicode="9" glyph-name="nine" horiz-adv-x="1006" d="M598 1219T666 1151Q733 1084 733 988Q733 893 666 825Q598 758 503 758Q408 758 341 825Q273 893 273 988Q273 1084 341 1151Q408 1219 503 1219Q598 1219 666 1151ZM592 545T674 579Q568 297 300
203L372 -3Q782 140 908 592Q966 802 951 999Q948 1183 818 1313Q687 1442 503 1442Q318 1442 186 1310Q55 1179 55 993Q55 808 186 676Q318 545 503 545Q592 545 674 579Z" />
<glyph unicode=":" glyph-name="colon" horiz-adv-x="392" d="M338 194T296 236Q254 278 194 278Q134 278 91 236Q49 194 49 134Q49 74 91 31Q134 -11 194 -11Q254 -11 296 31Q338 74 338 134Q338 194 296 236ZM338 810T296 852Q254 894 194 894Q134 894 91 852Q49
810 49 750Q49 690 91 647Q134 605 194 605Q254 605 296 647Q338 690 338 750Q338 810 296 852Z" />
<glyph unicode=";" glyph-name="semicolon" horiz-adv-x="392" d="M338 810T296 852Q254 894 194 894Q134 894 91 852Q49 810 49 750Q49 690 91 647Q134 605 194 605Q254 605 296 647Q338 690 338 750Q338 810 296 852ZM333 166T331 174Q331 171 330 175Q330 176
330 176Q330 177 330 177Q330 177 330 178V178Q316 222 278 250Q240 278 193 278Q133 278 91 236Q49 194 49 134Q49 75 91 33Q133 -9 193 -9Q202 -9 213 -8Q196 -67 138 -101L179 -156Q297 -105 329 8Q349 78 334 158Q333 166 331 174Z" />
<glyph unicode="&lt;" glyph-name="less" horiz-adv-x="876" d="M55 428L873 20V263L532 433L873 612V858L55 428Z" />
<glyph unicode="=" glyph-name="equal" horiz-adv-x="774" d="M60 641H721V858H60V641ZM60 314H721V531H60V314Z" />
<glyph unicode="&gt;" glyph-name="greater" horiz-adv-x="876" d="M5 858V612L346 433L5 263V20L823 428L5 858Z" />
<glyph unicode="?" glyph-name="question" horiz-adv-x="705" d="M161 394Q161 515 180 605Q203 716 280 825Q297 847 333 890Q421 994 421 1056Q421 1133 379 1180Q337 1227 269 1227Q207 1227 161 1175L-1 1321Q110 1444 269 1444Q427 1444 533 1333Q639 1222
639 1056Q639 914 498 749Q468 713 457 698Q405 625 391 553Q378 488 378 394H161ZM418 194T376 236Q334 278 274 278Q214 278 171 236Q129 194 129 134Q129 74 171 31Q214 -11 274 -11Q334 -11 376 31Q418 74 418 134Q418 194 376 236Z" />
<glyph unicode="@" glyph-name="at" horiz-adv-x="1460" d="M681 494T662 499Q598 518 567 590Q531 672 560 767Q611 940 754 940Q774 940 793 935Q857 916 888 844Q924 762 895 667Q844 494 701 494Q681 494 662 499ZM1086 1414T802 1443Q518 1472 297 1277Q79
1085 48 787Q17 486 194 253Q371 19 652 -10Q686 -14 719 -14Q885 -14 1033 68L928 259Q808 193 675 207Q483 226 363 390Q243 553 265 764Q287 978 441 1114Q591 1246 780 1226Q969 1207 1089 1047Q1212 882 1190 669Q1183 603 1162 542Q1125 450 1085 430V430Q1060
461 1089 562Q1098 583 1104 604Q1155 776 1088 930Q1016 1095 855 1143Q805 1158 754 1158Q619 1158 507 1066Q394 974 351 829Q299 657 367 503Q439 338 600 290Q649 275 701 275Q801 275 892 328Q909 296 935 271Q1020 192 1128 216Q1279 249 1365 463L1367
468Q1397 554 1407 646Q1438 945 1264 1177Q1086 1414 802 1443Z" />
<glyph unicode="A" glyph-name="A" horiz-adv-x="1298" d="M907 1431L2 0H259L470 334H956V0H1174V1431H907ZM956 1102V551H607L956 1102Z" />
<glyph unicode="B" glyph-name="B" horiz-adv-x="1118" d="M340 828H572Q652 828 708 885Q765 941 765 1021Q765 1101 708 1157Q652 1214 572 1214H340V828ZM340 217H651Q732 217 790 275Q847 333 847 415Q847 496 790 553Q732 611 651 611H340V217ZM123 0V1431H572Q742
1431 862 1311Q982 1190 982 1021Q982 870 885 756Q968 699 1015 610Q1065 519 1065 415Q1065 243 943 122Q822 0 651 0H123Z" />
<glyph unicode="C" glyph-name="C" horiz-adv-x="1090" d="M575 204T425 354Q275 504 275 716Q275 928 425 1078Q575 1229 787 1229Q917 1229 1030 1167V1405Q912 1446 787 1446Q485 1446 271 1232Q57 1018 57 716Q57 414 271 200Q485 -14 787 -14Q912 -14 1030
28V265Q917 204 787 204Q575 204 425 354Z" />
<glyph unicode="D" glyph-name="D" horiz-adv-x="1268" d="M332 216H492Q698 216 845 363Q991 509 991 715Q991 922 845 1068Q698 1215 492 1215H332V216ZM116 0V1431H492Q788 1431 998 1221Q1207 1011 1207 715Q1207 420 998 210Q788 0 492 0H116Z" />
<glyph unicode="E" glyph-name="E" horiz-adv-x="904" d="M120 1431V0H850V217H337V609H733V826H337V1214H850V1431H120Z" />
<glyph unicode="F" glyph-name="F" horiz-adv-x="904" d="M120 1431V0H337V609H733V826H337V1214H850V1431H120Z" />
<glyph unicode="G" glyph-name="G" horiz-adv-x="1189" d="M487 -14T273 200Q59 414 59 716Q59 1018 273 1232Q487 1446 789 1446Q938 1446 1073 1389L989 1188Q893 1229 789 1229Q577 1229 427 1078Q277 928 277 716Q277 504 427 354Q577 204 789 204Q858 204
923 221V611H691V829H1141V72L1075 44Q938 -14 789 -14Q487 -14 273 200Z" />
<glyph unicode="H" glyph-name="H" horiz-adv-x="1246" d="M921 1431V825H339V1429H122V0H339V608H921V0H1138V1431H921Z" />
<glyph unicode="I" glyph-name="I" horiz-adv-x="456" d="M339 1429H122V0H339V1429Z" />
<glyph unicode="J" glyph-name="J" horiz-adv-x="536" d="M280 1433V483Q280 367 198 285Q116 202 0 202V-15Q206 -15 352 131Q498 277 498 483V1433H280Z" />
<glyph unicode="K" glyph-name="K" horiz-adv-x="1196" d="M847 1431L347 810V1431H130V0H347V463L414 546L863 0H1145L553 719L1125 1431H847Z" />
<glyph unicode="L" glyph-name="L" horiz-adv-x="904" d="M120 1431V0H850V217H337V1431H120Z" />
<glyph unicode="M" glyph-name="M" horiz-adv-x="1723" d="M1374 1431L864 263L360 1431H133V0H350V903L741 0H986L1384 909V0H1601V1431H1374Z" />
<glyph unicode="N" glyph-name="N" horiz-adv-x="1268" d="M944 1431V408L333 1431H106V0H323V1023L935 0H1162V1431H944Z" />
<glyph unicode="O" glyph-name="O" horiz-adv-x="1552" d="M562 1228T412 1078Q262 928 262 716Q262 504 412 354Q562 204 774 204Q986 204 1136 354Q1286 504 1286 716Q1286 928 1136 1078Q986 1228 774 1228Q562 1228 412 1078ZM472 -14T258 200Q44 414 44 716Q44
1018 258 1232Q472 1446 774 1446Q1076 1446 1290 1232Q1504 1018 1504 716Q1504 414 1290 200Q1076 -14 774 -14Q472 -14 258 200Z" />
<glyph unicode="P" glyph-name="P" horiz-adv-x="1120" d="M340 820H651Q732 820 790 878Q847 935 847 1016Q847 1098 790 1156Q732 1214 651 1214H340V820ZM340 0H123V1431H651Q822 1431 943 1309Q1065 1188 1065 1016Q1065 845 943 724Q822 603 651 603H340V0Z" />
<glyph unicode="Q" glyph-name="Q" horiz-adv-x="1695" d="M333 960Q399 1082 518 1154Q640 1228 783 1228Q995 1228 1145 1078Q1295 928 1295 716Q1295 520 1164 374L333 960ZM571 204T421 354Q271 504 271 716Q271 724 271 737L975 241Q883 204 783 204Q571
204 421 354ZM1343 248Q1513 452 1513 716Q1513 1018 1299 1232Q1085 1446 783 1446Q481 1446 267 1232Q53 1018 53 716Q53 414 267 200Q481 -14 783 -14Q996 -14 1175 100L1316 1H1694L1343 248Z" />
<glyph unicode="R" glyph-name="R" horiz-adv-x="1132" d="M326 820V1214H637Q718 1214 776 1156Q833 1098 833 1016Q833 935 776 878Q718 820 637 820H326ZM799 636Q911 684 980 786Q1051 890 1051 1016Q1051 1188 929 1309Q808 1431 637 1431H109V0H326V603H571L884
0H1129L799 636Z" />
<glyph unicode="S" glyph-name="S" horiz-adv-x="1061" d="M514 -14T501 -13Q359 -7 239 63Q103 142 54 275L258 350Q283 284 361 243Q430 208 511 204Q636 199 718 265Q787 321 791 393Q797 530 504 612Q45 741 59 1049Q68 1265 244 1372Q378 1454 566 1445Q794
1435 932 1286L773 1138Q695 1222 556 1228Q458 1232 389 1203Q281 1157 276 1039Q270 904 563 822Q827 748 937 604Q1013 504 1008 383Q1000 213 854 95Q718 -14 528 -14Q514 -14 501 -13Z" />
<glyph unicode="T" glyph-name="T" horiz-adv-x="969" d="M70 1431V1214H373V0H591V1214H894V1431H70Z" />
<glyph unicode="U" glyph-name="U" horiz-adv-x="1275" d="M430 -13T280 136Q131 285 131 496V1432H349V496Q349 375 434 290Q520 204 640 204Q761 204 846 290Q932 375 932 496V1432H1150V496Q1150 285 1000 136Q851 -13 640 -13Q430 -13 280 136Z" />
<glyph unicode="V" glyph-name="V" horiz-adv-x="1235" d="M114 1431V0H380L1223 1431H971L332 346V1431H114Z" />
<glyph unicode="W" glyph-name="W" horiz-adv-x="2141" d="M131 1431V0H397L1031 1077V0H1297L2140 1431H1888L1249 346V1431H987L348 346V1431H131Z" />
<glyph unicode="X" glyph-name="X" horiz-adv-x="1125" d="M863 1431L560 917L257 1431H5L434 703L20 0H272L560 489L848 0H1100L686 703L1115 1431H863Z" />
<glyph unicode="Y" glyph-name="Y" horiz-adv-x="1111" d="M860 1431L557 917L254 1431H2L448 673V0H666V673L1112 1431H860Z" />
<glyph unicode="Z" glyph-name="Z" horiz-adv-x="954" d="M149 1431V1214H577L38 0H808V217H372L911 1431H149Z" />
<glyph unicode="[" glyph-name="bracketleft" horiz-adv-x="541" d="M539 1306V1524H54V-93H539V125H272V1306H539Z" />
<glyph unicode="\" glyph-name="backslash" horiz-adv-x="434" d="M-249 1431L437 0H678L-8 1431H-249Z" />
<glyph unicode="]" glyph-name="bracketright" horiz-adv-x="541" d="M-6 125V-93H479V1524H-6V1306H261V125H-6Z" />
<glyph unicode="^" glyph-name="asciicircum" horiz-adv-x="691" d="M164 1428L56 1218H301L345 1304L389 1218H634L525 1428H164Z" />
<glyph unicode="_" glyph-name="underscore" horiz-adv-x="774" d="M60 -299H721V-82H60V-299Z" />
<glyph unicode="`" glyph-name="grave" horiz-adv-x="356" d="M285 1727V1517H155L55 1727H285Z" />
<glyph unicode="a" glyph-name="a" horiz-adv-x="1341" d="M950 1431L45 0H302L513 334H999V0H1217V1431H950ZM999 1102V551H650L999 1102Z" />
<glyph unicode="b" glyph-name="b" horiz-adv-x="1118" d="M340 828H572Q652 828 708 885Q765 941 765 1021Q765 1101 708 1157Q652 1214 572 1214H340V828ZM340 217H651Q732 217 790 275Q847 333 847 415Q847 496 790 553Q732 611 651 611H340V217ZM123 0V1431H572Q742
1431 862 1311Q982 1190 982 1021Q982 870 885 756Q968 699 1015 610Q1065 519 1065 415Q1065 243 943 122Q822 0 651 0H123Z" />
<glyph unicode="c" glyph-name="c" horiz-adv-x="1090" d="M575 204T425 354Q275 504 275 716Q275 928 425 1078Q575 1229 787 1229Q917 1229 1030 1167V1405Q912 1446 787 1446Q485 1446 271 1232Q57 1018 57 716Q57 414 271 200Q485 -14 787 -14Q912 -14 1030
28V265Q917 204 787 204Q575 204 425 354Z" />
<glyph unicode="d" glyph-name="d" horiz-adv-x="1268" d="M332 216H492Q698 216 845 363Q991 509 991 715Q991 922 845 1068Q698 1215 492 1215H332V216ZM116 0V1431H492Q788 1431 998 1221Q1207 1011 1207 715Q1207 420 998 210Q788 0 492 0H116Z" />
<glyph unicode="e" glyph-name="e" horiz-adv-x="904" d="M120 1431V0H850V217H337V609H733V826H337V1214H850V1431H120Z" />
<glyph unicode="f" glyph-name="f" horiz-adv-x="904" d="M120 1431V0H337V609H733V826H337V1214H850V1431H120Z" />
<glyph unicode="g" glyph-name="g" horiz-adv-x="1189" d="M487 -14T273 200Q59 414 59 716Q59 1018 273 1232Q487 1446 789 1446Q938 1446 1073 1389L989 1188Q893 1229 789 1229Q577 1229 427 1078Q277 928 277 716Q277 504 427 354Q577 204 789 204Q858 204
923 221V611H691V829H1141V72L1075 44Q938 -14 789 -14Q487 -14 273 200Z" />
<glyph unicode="h" glyph-name="h" horiz-adv-x="1246" d="M921 1431V825H339V1429H122V0H339V608H921V0H1138V1431H921Z" />
<glyph unicode="i" glyph-name="i" horiz-adv-x="456" d="M339 1429H122V0H339V1429Z" />
<glyph unicode="j" glyph-name="j" horiz-adv-x="536" d="M280 1433V483Q280 367 198 285Q116 202 0 202V-15Q206 -15 352 131Q498 277 498 483V1433H280Z" />
<glyph unicode="k" glyph-name="k" horiz-adv-x="1196" d="M847 1431L347 810V1431H130V0H347V463L414 546L863 0H1145L553 719L1125 1431H847Z" />
<glyph unicode="l" glyph-name="l" horiz-adv-x="904" d="M120 1431V0H850V217H337V1431H120Z" />
<glyph unicode="m" glyph-name="m" horiz-adv-x="1723" d="M1374 1431L864 263L360 1431H133V0H350V903L741 0H986L1384 909V0H1601V1431H1374Z" />
<glyph unicode="n" glyph-name="n" horiz-adv-x="1268" d="M944 1431V408L333 1431H106V0H323V1023L935 0H1162V1431H944Z" />
<glyph unicode="o" glyph-name="o" horiz-adv-x="1552" d="M562 1228T412 1078Q262 928 262 716Q262 504 412 354Q562 204 774 204Q986 204 1136 354Q1286 504 1286 716Q1286 928 1136 1078Q986 1228 774 1228Q562 1228 412 1078ZM472 -14T258 200Q44 414 44 716Q44
1018 258 1232Q472 1446 774 1446Q1076 1446 1290 1232Q1504 1018 1504 716Q1504 414 1290 200Q1076 -14 774 -14Q472 -14 258 200Z" />
<glyph unicode="p" glyph-name="p" horiz-adv-x="1120" d="M340 820H651Q732 820 790 878Q847 935 847 1016Q847 1098 790 1156Q732 1214 651 1214H340V820ZM340 0H123V1431H651Q822 1431 943 1309Q1065 1188 1065 1016Q1065 845 943 724Q822 603 651 603H340V0Z" />
<glyph unicode="q" glyph-name="q" horiz-adv-x="1695" d="M333 960Q399 1082 518 1154Q640 1228 783 1228Q995 1228 1145 1078Q1295 928 1295 716Q1295 520 1164 374L333 960ZM571 204T421 354Q271 504 271 716Q271 724 271 737L975 241Q883 204 783 204Q571
204 421 354ZM1343 248Q1513 452 1513 716Q1513 1018 1299 1232Q1085 1446 783 1446Q481 1446 267 1232Q53 1018 53 716Q53 414 267 200Q481 -14 783 -14Q996 -14 1175 100L1316 1H1694L1343 248Z" />
<glyph unicode="r" glyph-name="r" horiz-adv-x="1132" d="M326 820V1214H637Q718 1214 776 1156Q833 1098 833 1016Q833 935 776 878Q718 820 637 820H326ZM799 636Q911 684 980 786Q1051 890 1051 1016Q1051 1188 929 1309Q808 1431 637 1431H109V0H326V603H571L884
0H1129L799 636Z" />
<glyph unicode="s" glyph-name="s" horiz-adv-x="1061" d="M514 -14T501 -13Q359 -7 239 63Q103 142 54 275L258 350Q283 284 361 243Q430 208 511 204Q636 199 718 265Q787 321 791 393Q797 530 504 612Q45 741 59 1049Q68 1265 244 1372Q378 1454 566 1445Q794
1435 932 1286L773 1138Q695 1222 556 1228Q458 1232 389 1203Q281 1157 276 1039Q270 904 563 822Q827 748 937 604Q1013 504 1008 383Q1000 213 854 95Q718 -14 528 -14Q514 -14 501 -13Z" />
<glyph unicode="t" glyph-name="t" horiz-adv-x="969" d="M70 1431V1214H373V0H591V1214H894V1431H70Z" />
<glyph unicode="u" glyph-name="u" horiz-adv-x="1275" d="M430 -13T280 136Q131 285 131 496V1432H349V496Q349 375 434 290Q520 204 640 204Q761 204 846 290Q932 375 932 496V1432H1150V496Q1150 285 1000 136Q851 -13 640 -13Q430 -13 280 136Z" />
<glyph unicode="v" glyph-name="v" horiz-adv-x="1235" d="M114 1431V0H380L1223 1431H971L332 346V1431H114Z" />
<glyph unicode="w" glyph-name="w" horiz-adv-x="2141" d="M131 1431V0H397L1031 1077V0H1297L2140 1431H1888L1249 346V1431H987L348 346V1431H131Z" />
<glyph unicode="x" glyph-name="x" horiz-adv-x="1125" d="M863 1431L560 917L257 1431H5L434 703L20 0H272L560 489L848 0H1100L686 703L1115 1431H863Z" />
<glyph unicode="y" glyph-name="y" horiz-adv-x="1111" d="M860 1431L557 917L254 1431H2L448 673V0H666V673L1112 1431H860Z" />
<glyph unicode="z" glyph-name="z" horiz-adv-x="954" d="M149 1431V1214H577L38 0H808V217H372L911 1431H149Z" />
<glyph unicode="{" glyph-name="braceleft" horiz-adv-x="1108" />
<glyph unicode="|" glyph-name="bar" horiz-adv-x="1108" />
<glyph unicode="}" glyph-name="braceright" horiz-adv-x="1108" />
<glyph unicode="~" glyph-name="asciitilde" horiz-adv-x="612" d="M389 1197T348 1212Q325 1222 283 1244Q254 1259 239 1266Q221 1275 202 1264Q190 1257 181 1245V1246L50 1343Q87 1394 147 1419Q228 1452 308 1415Q327 1406 360 1388Q407 1363 419 1362Q426
1361 432 1364Q437 1366 446 1375L556 1253Q493 1197 425 1197Q389 1197 348 1212Z" />
</font>
</defs>
</svg>
